<?xml version="1.0" encoding="UTF-8"?>
<svg width="400" height="400" viewBox="0 0 400 400" fill="none" xmlns="http://www.w3.org/2000/svg">
  <!-- Background with gradient -->
  <defs>
    <linearGradient id="bgGradient" x1="0" y1="0" x2="400" y2="400" gradientUnits="userSpaceOnUse">
      <stop offset="0%" stop-color="#2A2D3E"/>
      <stop offset="100%" stop-color="#1a1c2a"/>
    </linearGradient>
    <linearGradient id="circleGradient" x1="0" y1="0" x2="400" y2="400" gradientUnits="userSpaceOnUse">
      <stop offset="0%" stop-color="#6C63FF"/>
      <stop offset="100%" stop-color="#4A41FF"/>
    </linearGradient>
  </defs>
  
  <!-- Main background -->
  <rect width="400" height="400" fill="url(#bgGradient)"/>
  
  <!-- Main circle -->
  <circle cx="200" cy="200" r="150" fill="url(#circleGradient)" opacity="0.1"/>
  
  <!-- Circular elements -->
  <circle cx="200" cy="200" r="140" stroke="#6C63FF" stroke-width="2" fill="none"/>
  <circle cx="200" cy="200" r="120" stroke="#6C63FF" stroke-width="2" fill="none" opacity="0.7"/>
  <circle cx="200" cy="200" r="100" stroke="#6C63FF" stroke-width="2" fill="none" opacity="0.5"/>
  
  <!-- Stylized 'A' in circle -->
  <g transform="translate(200, 200)">
    <circle cx="0" cy="0" r="60" stroke="white" stroke-width="2" fill="none"/>
    <path d="M-30 30L0 -30L30 30" stroke="white" stroke-width="4" stroke-linecap="round"/>
    <path d="M-15 10H15" stroke="white" stroke-width="4" stroke-linecap="round"/>
  </g>
  
  <!-- Decorative dots -->
  <circle cx="200" cy="50" r="4" fill="#6C63FF"/>
  <circle cx="350" cy="200" r="4" fill="#6C63FF"/>
  <circle cx="200" cy="350" r="4" fill="#6C63FF"/>
  <circle cx="50" cy="200" r="4" fill="#6C63FF"/>
  
  <!-- Connecting lines -->
  <path d="M200 50L350 200M350 200L200 350M200 350L50 200M50 200L200 50" stroke="#6C63FF" stroke-width="1" opacity="0.3"/>
</svg> 